<?xml version="1.0" standalone="no"?>
<!DOCTYPE svg PUBLIC "-//W3C//DTD SVG 20010904//EN"
 "http://www.w3.org/TR/2001/REC-SVG-20010904/DTD/svg10.dtd">
<svg version="1.0" xmlns="http://www.w3.org/2000/svg"
 width="512.000000pt" height="512.000000pt" viewBox="0 0 512.000000 512.000000"
 preserveAspectRatio="xMidYMid meet">
<metadata>
Created by potrace 1.14, written by Peter Selinger 2001-2017
</metadata>
<g transform="translate(0.000000,512.000000) scale(0.100000,-0.100000)"
fill="#000000" stroke="none">
<path d="M1868 4556 c-82 -27 -158 -76 -209 -135 -26 -29 -76 -118 -137 -243
l-96 -198 -93 0 -93 0 0 88 c0 55 -4 92 -12 100 -18 18 -841 17 -856 -1 -6 -7
-12 -53 -14 -103 -3 -81 -5 -89 -23 -89 -42 -1 -122 -30 -172 -62 -64 -42
-108 -91 -136 -152 l-22 -46 -1 -1424 c-2 -1346 -1 -1427 16 -1476 38 -111
122 -201 230 -248 l63 -27 2276 3 2276 2 49 24 c90 45 166 144 195 256 7 27
11 511 11 1455 0 1522 2 1461 -50 1545 -44 72 -148 137 -235 149 -22 3 -40 5
-40 6 0 0 1 19 2 41 1 34 -5 48 -32 78 l-33 36 -170 3 c-187 4 -226 -4 -258
-53 -10 -15 -18 -45 -18 -66 -1 -27 -6 -39 -16 -40 -48 -3 -531 -1 -534 2 -2
2 -47 93 -99 202 -109 223 -153 281 -258 337 -108 58 -99 57 -801 57 -634 0
-649 0 -710 -21z"/>
</g>
</svg>
